<svg width="693" height="278" viewBox="0 0 693 278" fill="none" xmlns="http://www.w3.org/2000/svg">
<path d="M482.382 277.651C431.533 277.651 396.622 257.539 393.586 208.208H436.466C439.502 235.909 455.819 245.017 483.521 245.017C508.186 245.017 524.124 235.909 524.124 219.971C524.124 205.172 518.432 198.342 476.69 191.511C415.595 181.265 398.519 161.533 398.519 129.657C398.519 93.2281 430.774 71.2188 477.829 71.2188C532.852 71.2188 562.451 96.6433 563.21 138.006H521.847C520.709 110.684 500.976 103.853 477.829 103.853C457.337 103.853 441.779 112.581 441.779 128.139C441.779 143.318 450.886 149.39 490.731 155.841C550.687 166.087 567.763 184.301 567.763 217.315C567.763 256.401 532.093 277.651 482.382 277.651Z" fill="white"/>
<path d="M638.032 155.703C620.613 155.703 609.871 142.638 609.871 125.219C609.871 107.799 620.613 94.7349 638.032 94.7349C653.565 94.7349 662.71 103.88 664.452 116.799H651.242C649.935 110.122 645.29 105.912 638.032 105.912C628.161 105.912 623.226 113.751 623.226 125.219C623.226 136.686 628.161 144.525 638.032 144.525C645.435 144.525 650.226 140.17 651.242 133.057H664.452C662.855 146.267 652.984 155.703 638.032 155.703ZM582 125.219C582 93.5736 605.661 71.2188 637.161 71.2188C668.516 71.2188 692.177 93.5736 692.177 125.219C692.177 156.864 668.516 179.219 637.161 179.219C605.661 179.219 582 156.864 582 125.219ZM595.21 125.219C595.21 150.622 612.629 166.88 637.161 166.88C661.694 166.88 679.113 150.622 679.113 125.219C679.113 99.8155 661.694 83.5575 637.161 83.5575C612.629 83.5575 595.21 99.8155 595.21 125.219Z" fill="white"/>
<path d="M273.453 273.219V75.894H315.574V110.805C329.615 83.104 351.245 73.6172 376.29 73.6172H391.469V114.221H374.392C340.999 114.221 317.092 128.261 317.092 175.315V273.219H273.453Z" fill="white"/>
<path d="M203.391 273.219V75.8942H247.03V273.219H203.391ZM203.391 42.8802V0H247.03V42.8802H203.391Z" fill="white"/>
<path d="M0 273.219V0H190.495V42.1213H46.675V111.944H183.285V152.547H46.675V273.219H0Z" fill="white"/>
</svg>