<?xml version="1.0" encoding="UTF-8" standalone="no"?>
<!-- Created with Inkscape (http://www.inkscape.org/) -->
<svg xmlns:svg="http://www.w3.org/2000/svg" xmlns="http://www.w3.org/2000/svg" version="1.0" width="600" height="140" id="svg2">
  <defs id="defs4"/>
  <g id="layer1">
    <path d="M 41.052466,105.79651 C 40.345332,105.32909 39.99439,103.82688 40.272608,102.45825 C 40.818757,99.771486 47.773527,92.021707 51.328345,90.138701 C 52.529902,89.50221 53.667713,88.220356 53.856809,87.29017 C 55.151252,80.922251 44.159208,68.068097 31.734923,61.420602 C 13.508096,51.668549 9.4338253,47.508243 10.936037,40.182485 C 11.422227,37.811552 13.045835,34.640973 14.544025,33.136957 C 17.37695,30.292989 38.004327,21.900936 39.229212,22.61997 C 40.068594,23.112631 30.244899,26.620981 28.759327,27.065669 C 27.273745,27.510443 23.72386,29.255103 20.870673,30.942843 C 16.406688,33.583364 15.556712,34.658519 14.777207,38.650337 C 13.278298,46.326085 15.722014,49.020367 32.70432,58.416013 C 44.308347,64.836035 52.744417,72.090037 56.757034,79.098407 L 59.538276,83.956063 L 64.199106,80.295793 C 72.938637,73.432446 76.662799,69.319969 77.067567,66.085527 C 77.485689,62.744308 80.597934,60.224832 82.314879,61.837633 C 82.877321,62.365986 83.089269,64.019339 82.785868,65.511837 C 82.137677,68.700576 85.427158,70.736872 91.624022,70.982783 C 98.227281,71.244943 101.99564,69.674835 104.19069,65.746918 C 105.32478,63.717433 107.1387,62.1026 108.27005,62.115231 C 109.94078,62.133802 110.14037,62.959023 109.37953,66.70193 L 108.45177,71.265855 L 112.98927,72.188271 C 119.33352,73.477897 124.60789,71.746252 126.25262,67.833559 C 127.87185,63.981668 130.54589,64.199299 131.209,68.237032 C 132.12307,73.802801 137.885,76.346138 145.99015,74.761635 L 150.50755,73.878531 L 147.52273,75.870552 C 144.01487,78.211641 132.51209,77.281367 129.00181,74.372713 C 127.28589,72.950944 125.90188,72.885612 121.77917,74.031919 C 117.20892,75.302685 111.51116,74.868202 104.08022,72.682087 C 102.8692,72.325837 99.702229,72.408042 97.042515,72.864719 C 94.382801,73.321395 89.095125,73.08558 85.292118,72.340729 L 78.377575,70.986358 L 71.946503,76.971365 C 68.409416,80.26311 64.352244,83.640186 62.930552,84.476191 C 60.80621,85.725216 60.21691,87.083909 59.62301,92.101847 C 58.257913,103.6359 48.580348,110.77251 41.052466,105.79651 z M 52.784354,98.74487 C 53.05073,97.676001 53.626943,95.925741 54.064825,94.855439 C 55.308829,91.814733 52.489723,92.839074 48.026582,97.049501 C 43.513,101.3076 42.898657,105.45901 46.962114,104.2426 C 50.915265,102.90257 51.162829,102.58772 52.784354,98.74487 z M 351.59331,115.14888 C 351.83417,114.07489 353.41835,110.06526 355.11371,106.23867 C 359.14044,97.149951 361.73947,84.364711 361.86986,73.003465 C 362.00275,61.423679 364.15109,50.477681 366.54262,49.195328 C 368.00151,48.413097 368.10169,49.315463 367.10198,54.23342 C 366.43218,57.528478 365.83412,63.840727 365.77301,68.260629 L 365.66186,76.296868 L 368.67605,71.075778 C 372.31456,64.773326 375.3897,64.15684 376.12599,69.582184 C 377.10121,76.76831 382.86938,74.430508 385.29202,65.867178 C 386.25469,62.464391 387.70703,59.671667 388.71332,59.288296 C 394.15828,57.213675 399.4809,63.041966 398.14462,69.615635 C 397.20251,74.250298 395.15611,75.874997 391.25768,75.083371 C 389.68618,74.764199 385.52549,74.974907 382.01168,75.55162 C 377.29759,76.32533 375.12793,76.189998 373.73433,75.035237 C 372.69556,74.174483 371.61437,73.423208 371.33166,73.36582 C 370.02858,73.100917 368.19791,77.998418 364.44105,91.800044 C 360.06046,107.89308 355.47684,117.98016 352.79265,117.43454 C 351.89214,117.25149 351.35244,116.22296 351.59331,115.14888 z M 394.05315,69.801215 C 394.25514,68.888464 393.77952,67.353835 392.99624,66.390887 C 391.77521,64.889755 391.8693,64.815211 393.65592,65.868368 C 395.50451,66.958004 395.60955,66.847927 394.5863,64.893551 C 393.95187,63.681943 392.6106,62.53138 391.60569,62.336997 C 390.44403,62.112199 390.17006,62.375161 390.8535,63.059107 C 391.44469,63.65075 391.53791,65.77507 391.06063,67.779874 C 390.42242,70.460713 390.65488,71.429653 391.93938,71.442825 C 392.89997,71.45269 393.85116,70.713964 394.05315,69.801215 z M 161.90782,73.930614 C 157.46309,71.021882 159.10449,63.304892 167.31612,48.503965 C 174.50094,35.553734 183.19737,30.417299 187.01956,36.866302 C 188.98732,40.186383 188.55101,41.479348 182.90333,49.063757 C 179.80043,53.230764 174.95864,57.6939 169.72433,61.212156 C 162.01702,66.392668 161.49945,66.986839 162.16893,69.885501 C 163.06145,73.749816 167.66421,74.971572 174.33617,73.115248 C 181.43077,71.141281 183.83415,68.814279 185.59815,62.211379 C 189.35106,48.163688 200.9033,32.887738 206.85836,34.098249 C 215.18334,35.790579 207.64223,53.182585 193.79537,64.225281 C 189.03728,68.019821 188.29292,69.091659 188.93242,71.22808 C 189.91662,74.51594 194.15098,76.473743 199.21026,75.980266 C 201.433,75.763438 202.88746,75.973636 202.44243,76.447383 C 201.9974,76.921213 199.5302,77.499815 196.95977,77.733209 C 192.66707,78.122941 191.97096,77.842431 188.41653,74.28978 L 184.5468,70.42194 L 179.0921,72.655608 C 174.18262,74.665976 171.47397,75.227339 165.95395,75.378567 C 164.98598,75.405037 163.16522,74.753465 161.90782,73.930614 z M 180.44085,47.979853 C 184.21866,42.883345 185.85346,38.575554 184.47911,37.338899 C 184.07223,36.972843 182.54228,36.86767 181.0792,37.105165 C 177.02058,37.764057 171.9444,44.860383 165.82712,58.426957 L 164.14036,62.167804 L 170.41158,57.608736 C 173.86074,55.101305 178.37392,50.768226 180.44085,47.979853 z M 198.97966,55.862706 C 203.72078,50.121029 207.79421,42.075036 207.43849,39.154478 C 207.08727,36.271011 203.22496,36.850909 200.77789,40.154597 C 196.86766,45.433493 190.57793,57.559288 189.82265,61.274924 C 189.15589,64.554962 189.22858,64.632382 191.63586,63.205644 C 193.01516,62.388091 196.31987,59.08382 198.97966,55.862706 z M 204.57584,74.794713 C 204.69702,74.198586 205.99011,73.003128 207.44937,72.138258 C 208.90862,71.273388 210.22226,70.015181 210.36861,69.34227 C 210.51495,68.669274 212.70931,66.481585 215.24497,64.480607 C 220.19353,60.575601 223.71542,60.996316 222.82311,65.385951 C 221.31862,72.787181 226.97705,75.515525 233.13827,70.359679 C 235.2977,68.552673 237.59345,67.181698 238.23998,67.313087 C 238.8865,67.444476 239.69489,69.446434 240.03638,71.761901 C 240.37788,74.077285 241.01667,76.044828 241.45592,76.134061 C 243.51263,76.552186 248.44514,73.363017 250.55935,70.248142 C 253.13497,66.453548 256.50816,66.12925 255.77277,69.746875 C 254.91234,73.979674 258.83044,74.657646 266.34356,71.575848 C 268.25402,70.792265 268.78,70.897462 268.95963,72.099157 C 269.30905,74.43679 272.0785,74.450877 273.37488,72.121648 C 274.66685,69.800377 276.77339,69.785606 278.29732,72.087179 C 279.48833,73.885925 281.90279,73.21784 282.36123,70.962562 C 282.54173,70.074582 283.69785,69.552954 284.93036,69.803556 C 286.16286,70.054074 287.06878,70.763299 286.94352,71.379565 C 286.81824,71.99583 287.21996,72.602479 287.83621,72.727822 C 288.45248,72.852997 289.20113,71.753 289.49991,70.283243 C 290.20942,66.792832 295.47474,64.699164 300.03188,66.095277 C 304.77863,67.549577 304.64482,70.908519 299.73271,73.605279 L 295.99099,75.659552 L 303.63232,76.81219 C 311.35791,77.977578 313.64538,79.540875 307.73008,79.612774 C 305.96099,79.634282 299.74256,78.584677 293.91135,77.280383 C 285.32861,75.360657 281.93171,75.125421 276.07756,76.045416 C 272.10017,76.670558 268.22215,77.022065 267.45972,76.826618 C 259.53612,74.795414 250.83241,74.823745 247.43753,76.89176 C 243.57006,79.247731 239.148,78.806926 236.40106,75.791794 C 234.81341,74.049061 233.98852,73.881344 230.44774,74.581598 C 228.1871,75.028659 224.44394,75.009489 222.12964,74.538994 C 219.65463,74.035919 217.16561,74.292108 216.08551,75.161118 C 214.81812,76.180847 213.2671,76.225706 211.07912,75.305977 C 209.33541,74.572931 207.10955,74.402081 206.13225,74.926079 C 205.1307,75.463089 204.45162,75.405776 204.57584,74.794713 z M 215.14355,72.485242 C 216.53158,70.305086 215.27659,68.720618 213.57073,70.499466 C 211.75815,72.389599 211.54986,73.555155 212.97296,73.844456 C 213.60855,73.973687 214.58533,73.362033 215.14355,72.485242 z M 296.66463,69.563678 C 296.88674,68.535598 297.13933,68.619905 297.62071,69.882527 C 298.10595,71.155256 298.55384,71.301583 299.35468,70.449084 C 300.89125,68.813222 299.9048,67.840885 297.02205,68.149976 C 294.5055,68.419653 293.19796,70.3174 295.24229,70.732979 C 295.85855,70.858239 296.4986,70.33199 296.66463,69.563678 z M 143.58289,59.155675 C 144.00421,57.082997 144.11667,57.105693 147.65796,59.976809 L 150.52707,62.303058 L 146.88416,61.569641 C 144.39021,61.067678 143.34901,60.306308 143.58289,59.155675 z M 35.160174,24.292462 C 36.161546,22.4091 52.531947,19.312629 49.667757,21.068185 C 49.368639,21.251501 41.699653,23.148746 39.342168,23.736764 C 36.984676,24.324783 35.102781,24.574834 35.160174,24.292462 z M 331.4077,78.778964 C 331.21427,77.623522 332.33232,73.330184 333.89221,69.238318 C 335.45212,65.14645 337.09303,60.004917 337.53867,57.81266 L 338.34892,53.826736 L 329.45133,52.018026 C 324.35819,50.982782 320.3418,49.63424 320.05809,48.86422 C 319.21141,46.566401 320.63424,46.600046 326.00483,49.004868 C 328.85488,50.281158 333.13611,51.389998 335.51867,51.469057 C 339.66132,51.606496 339.9271,51.39032 341.60194,46.51948 C 345.04615,36.503151 345.93757,35.167715 351.40898,31.82796 C 354.44153,29.976882 357.30213,28.532963 357.76587,28.619249 C 359.10307,28.867937 358.01209,32.301139 354.98399,37.373257 C 352.14507,42.128571 350.79798,49.632244 350.79438,60.710673 C 350.79274,65.757531 351.3625,67.480451 355.14509,73.867389 C 356.53033,76.206364 356.7593,77.404123 355.78329,77.205682 C 353.31354,76.70372 346.55443,64.997281 346.56624,61.242276 C 346.57655,57.965467 345.40903,55.616362 344.17586,56.432943 C 343.86532,56.638509 341.49227,61.852963 338.90242,68.020468 C 334.04651,79.58449 332.02768,82.482466 331.4077,78.778964 z M 49.974499,20.292204 C 51.69416,19.724715 77.623653,16.630098 78.23991,16.755357 C 78.856168,16.880616 81.832421,16.589502 80.112765,17.157077 C 78.393095,17.724565 48.803473,21.360858 47.968294,21.55187 C 47.355271,21.692089 48.254826,20.859779 49.974499,20.292204 z M 118.33285,24.737975 C 113.68915,21.579227 100.31052,18.457016 88.967083,17.884728 C 76.711895,17.266507 75.319802,16.927246 82.852801,16.394577 C 95.769656,15.4812 116.16704,19.993713 121.41842,24.926483 C 123.78923,27.153402 121.69578,27.025555 118.33285,24.737975 z M 435.3009,78.264036 C 434.09175,77.432308 432.89127,76.178667 432.63314,75.47808 C 432.32891,74.652325 430.69015,74.49568 427.97468,75.032721 C 423.15074,75.986651 422.52575,75.950246 422.77381,74.729966 C 422.87316,74.241166 424.69121,73.691908 426.8139,73.509355 C 430.3257,73.207488 430.71484,72.81824 431.13425,69.187616 C 431.38777,66.993115 433.33732,62.015092 435.46657,58.125354 C 442.92661,44.497509 450.46033,42.810528 448.6917,55.163991 C 448.01527,59.88866 447.05715,61.956924 443.92617,65.451085 C 441.77078,67.856487 439.64563,69.750979 439.20358,69.66114 C 438.76154,69.571302 437.53241,70.412617 436.47218,71.530869 C 433.84835,74.298149 435.40999,77.057317 440.14487,78.019853 C 444.62536,78.930642 452.73372,75.267448 454.39432,71.582307 C 456.1938,67.588997 457.85154,65.910724 459.9835,65.924055 C 461.31438,65.932342 461.74182,66.730462 461.38586,68.5426 C 460.06504,75.266901 465.03877,76.451187 469.53398,70.482613 C 472.50381,66.539467 475.99174,66.667938 475.90202,70.717274 C 475.80182,75.239589 477.23439,75.006436 486.46703,68.998018 C 496.02658,62.776832 501.08649,61.238821 507.62224,62.567344 C 509.65817,62.981193 512.72946,62.995194 514.44733,62.598439 C 518.51893,61.658071 519.72962,63.599906 516.02481,65.128628 C 513.99881,65.964623 512.93379,67.419991 512.38983,70.096014 C 511.96666,72.177757 512.16343,73.99132 512.82709,74.126266 C 514.23574,74.41261 520.04219,70.638529 524.31682,66.658136 C 528.20146,63.04093 529.78837,64.619432 527.85904,70.181541 C 526.15609,75.091203 526.89266,75.675932 532.70221,74.026061 C 537.94774,72.536377 541.97115,67.861216 542.1628,63.032876 C 542.31144,59.287983 544.59404,56.081727 546.7932,56.528753 C 547.33402,56.638696 547.41104,58.526496 546.96436,60.723872 C 545.84221,66.244166 546.9121,68.952998 550.8719,70.617575 C 553.29737,71.637138 553.97208,72.476448 553.26242,73.591162 C 551.95599,75.643013 554.03884,75.965457 559.23514,74.515714 C 563.44001,73.342534 563.47541,73.287826 565.19153,65.303101 C 566.73399,58.126307 567.31573,56.994946 570.65276,54.681769 C 572.70691,53.257885 574.56138,51.238059 574.77374,50.193326 C 575.18085,48.19063 576.98708,47.958553 577.67325,49.820847 C 577.89585,50.424947 579.55112,51.538411 581.35172,52.295337 C 584.95201,53.808821 586.10168,57.307833 584.37844,61.506891 C 583.79499,62.928657 580.26802,66.314395 576.54078,69.030811 C 572.81352,71.747143 569.9802,74.556533 570.24452,75.273816 C 570.99486,77.310251 576.50395,81.465241 583.40858,85.202139 L 589.7153,88.615566 L 583.68662,86.714813 C 580.37079,85.669419 574.87386,82.71601 571.47124,80.151535 L 565.28458,75.489009 L 557.86434,76.880791 C 553.78315,77.646308 549.4256,78.065633 548.18082,77.812572 C 545.54334,77.27643 545.55592,75.180405 548.19928,74.737946 C 551.04093,74.262282 550.64637,72.833591 547.28288,71.419665 C 544.6639,70.318792 543.18314,70.775565 537.35443,74.482526 C 531.22321,78.381898 530.13369,78.687987 526.97672,77.398252 C 525.03668,76.605684 522.90221,75.312261 522.23349,74.524036 C 521.36512,73.500561 519.91167,73.606301 517.14862,74.893908 C 512.16545,77.216163 507.2936,75.830926 507.51275,72.154167 C 507.6651,69.598221 507.59275,69.569998 504.04052,70.798721 C 501.2939,71.748774 500.63342,72.465135 501.32132,73.748083 C 502.88291,76.660466 500.46281,78.960769 497.38648,77.488186 C 495.33413,76.505764 494.04931,76.702929 492.11621,78.297112 C 489.9272,80.102238 489.34384,80.136587 488.05602,78.53593 C 487.22886,77.507896 486.75646,75.661448 487.00625,74.432608 C 487.40015,72.494863 486.77227,72.605575 482.27278,75.26708 C 474.93117,79.609952 472.05957,80.337508 470.4003,78.275183 C 469.36428,76.987576 468.24166,76.773693 465.41072,77.324439 C 463.40168,77.715316 460.37168,77.452354 458.67739,76.740136 C 456.32925,75.753025 454.3454,76.024524 450.33306,77.881968 C 444.63805,80.518289 438.79393,80.666879 435.3009,78.264036 z M 441.03421,64.144678 C 443.84641,60.233709 445.46827,57.107014 446.8896,53.670921 C 446.5755,52.349163 443.48942,51.983924 442.02092,53.31573 C 440.19783,55.646559 439.4215,57.893417 438.2549,60.982125 C 436.46271,63.864032 436.44472,68.355165 438.26002,67.686313 C 439.52695,66.51039 439.94498,65.73467 441.03421,64.144678 z M 503.34001,68.697434 C 504.72172,68.156487 504.8415,67.866748 503.77827,67.63762 C 502.9735,67.464186 502.69055,66.92254 503.14949,66.433984 C 503.60842,65.945427 502.92115,65.604377 501.62223,65.676228 C 500.3233,65.748077 499.11876,66.504303 498.94547,67.356872 C 498.58046,69.152468 500.60248,69.769332 503.34001,68.697434 z M 579.95608,62.899966 C 581.21202,61.3475 582.24595,59.244534 582.25363,58.226783 C 582.27093,55.938405 578.90058,54.61416 575.58504,55.606675 C 572.96036,57.804576 572.37976,58.078273 570.78334,61.356711 C 568.53507,64.037326 569.88489,66.263339 571.11529,68.190652 C 570.63679,70.544612 576.71368,66.907943 579.95608,62.899966 z M 415.01845,70.794615 C 412.87655,67.18068 412.27574,60.918262 413.93891,59.542307 C 414.70424,58.90914 416.15292,56.19556 417.15822,53.512184 C 419.72041,46.673033 423.1186,42.439537 426.71244,41.609472 C 432.41683,40.292021 436.54852,46.441783 433.35354,51.494286 C 430.71942,55.659951 425.61491,59.824612 421.10799,61.48533 C 414.99117,63.7391 414.80898,69.58689 420.74156,73.247858 C 421.66065,73.814973 421.10015,74.001904 419.37104,73.704854 C 417.76195,73.428482 415.80329,72.118815 415.01845,70.794615 z M 430.74273,49.01355 C 431.54265,45.83333 431.30713,45.304079 428.87177,44.808982 C 425.51745,44.127159 423.09392,47.03523 420.72401,54.58568 C 419.11339,59.717117 419.13574,59.811116 421.61631,58.340967 C 424.3714,56.392459 427.91136,55.781335 430.74273,49.01355 z M 478.61264,52.586636 C 478.80053,51.662323 479.71059,51.059742 480.63497,51.247674 C 481.55937,51.43552 482.16193,52.345576 481.97402,53.269975 C 481.78611,54.194374 480.87607,54.796953 479.95168,54.609023 C 479.02729,54.421092 478.42472,53.511036 478.61264,52.586636 z" id="path2509" style="fill:#0080ff"/>
  </g>
</svg>